<svg xmlns="http://www.w3.org/2000/svg" data-name="Layer 1" viewBox="0 0 100 125" x="0px" y="0px">
    <g fill="white" stroke="white">  
        <path d="M91.68,37.31l-1.91-1.83-.06-12.76-3-2.79H15.43V31.27H8.32V45.32h7.11V64.54H13.22v12.1h2.21v3.43H89.21l-.07-2.53,2.54-2.77ZM89.68,74l-2.57,2.79,0,1.29H17.43V76.64h1.7V76.1h10.8V65.19l-10.8-.06v-.59h-1.7V45.32h9.12v-14H17.43V21.93H85.91l1.81,1.67,0,12.74,1.91,1.82Z"/>
        <polygon points="83.39 56.51 82.27 56.51 82.27 57.48 81.39 57.48 81.39 56.51 80.27 56.51 80.27 57.48 79.39 57.48 79.39 56.51 78.27 56.51 78.27 57.48 77.39 57.48 77.39 56.51 76.27 56.51 76.27 57.48 75.39 57.48 75.39 56.51 74.27 56.51 74.27 57.48 73.39 57.48 73.39 56.51 72.27 56.51 72.27 57.48 71.39 57.48 71.39 56.51 70.27 56.51 70.27 57.48 69.39 57.48 69.39 56.51 68.27 56.51 68.27 57.48 67.39 57.48 67.39 56.51 66.27 56.51 66.27 57.48 65.39 57.48 65.39 56.51 64.27 56.51 64.27 57.48 63.39 57.48 63.39 56.51 62.27 56.51 62.27 57.48 61.39 57.48 61.39 56.51 60.27 56.51 60.27 57.48 59.39 57.48 59.39 56.51 58.27 56.51 58.27 57.48 57.39 57.48 57.39 56.51 56.27 56.51 56.27 57.48 55.39 57.48 55.39 56.51 54.27 56.51 54.27 57.48 53.39 57.48 53.39 56.51 52.27 56.51 52.27 57.48 51.39 57.48 51.39 56.51 50.27 56.51 50.27 57.48 49.39 57.48 49.39 56.51 48.27 56.51 48.27 57.48 47.29 57.48 47.29 65.56 48.27 65.56 48.27 66.53 49.39 66.53 49.39 65.56 50.27 65.56 50.27 66.53 51.39 66.53 51.39 65.56 52.27 65.56 52.27 66.53 53.39 66.53 53.39 65.56 54.27 65.56 54.27 66.53 55.39 66.53 55.39 65.56 56.27 65.56 56.27 66.53 57.39 66.53 57.39 65.56 58.27 65.56 58.27 66.53 59.39 66.53 59.39 65.56 60.27 65.56 60.27 66.53 61.39 66.53 61.39 65.56 62.27 65.56 62.27 66.53 63.39 66.53 63.39 65.56 64.27 65.56 64.27 66.53 65.39 66.53 65.39 65.56 66.27 65.56 66.27 66.53 67.39 66.53 67.39 65.56 68.27 65.56 68.27 66.53 69.39 66.53 69.39 65.56 70.27 65.56 70.27 66.53 71.39 66.53 71.39 65.56 72.27 65.56 72.27 66.53 73.39 66.53 73.39 65.56 74.27 65.56 74.27 66.53 75.39 66.53 75.39 65.56 76.27 65.56 76.27 66.53 77.39 66.53 77.39 65.56 78.27 65.56 78.27 66.53 79.39 66.53 79.39 65.56 80.27 65.56 80.27 66.53 81.39 66.53 81.39 65.56 82.27 65.56 82.27 66.53 83.39 66.53 83.39 65.56 84.72 65.56 84.72 57.48 83.39 57.48 83.39 56.51"/>
        <path d="M35.2,38.1c0,8.7,12,12,17.9,3.1c6.1,9.2,17.6,5.3,17.6-3.1S59.3,25.6,53.1,35  C47.3,25.7,35.2,29.4,35.2,38.1L35.2,38.1z M38.4,38.1c0-6.3,8.9-8.3,13,0C47.2,46,38.4,44.4,38.4,38.1L38.4,38.1z M54.9,38.1  c3.7-8.4,12.9-6.1,12.8,0C67.7,44.2,58.5,46.1,54.9,38.1z"/>
    </g>
</svg>